<svg xmlns="http://www.w3.org/2000/svg" xmlns:xlink="http://www.w3.org/1999/xlink" viewBox="0 0 300 300"><defs><style>.cls-1{fill:url(#linear-gradient);}.cls-2{fill:url(#linear-gradient-2);}.cls-3{fill:url(#linear-gradient-3);}.cls-4{fill:url(#linear-gradient-4);}.cls-5{fill:url(#linear-gradient-5);}.cls-6{fill:url(#linear-gradient-6);}</style><linearGradient id="linear-gradient" x1="182.71" y1="320.79" x2="-15.06" y2="121.11" gradientUnits="userSpaceOnUse"><stop offset="0" stop-color="#0981b0"/><stop offset="1" stop-color="#03bfd7"/></linearGradient><linearGradient id="linear-gradient-2" x1="183.24" y1="320.26" x2="-14.54" y2="120.59" xlink:href="#linear-gradient"/><linearGradient id="linear-gradient-3" x1="122.74" y1="-14.25" x2="311.05" y2="175.96" xlink:href="#linear-gradient"/><linearGradient id="linear-gradient-4" x1="123.29" y1="-14.8" x2="311.61" y2="175.41" xlink:href="#linear-gradient"/><linearGradient id="linear-gradient-5" x1="39.48" y1="41.39" x2="255.24" y2="254.31" gradientUnits="userSpaceOnUse"><stop offset="0" stop-color="#03bfd7"/><stop offset="1" stop-color="#8bceae"/></linearGradient><linearGradient id="linear-gradient-6" x1="39.55" y1="41.32" x2="255.3" y2="254.24" xlink:href="#linear-gradient-5"/></defs><g id="Layer_2" data-name="Layer 2"><g id="Logo"><path class="cls-1" d="M83.57,170.92c-21.16-23.19-39.18-46.17-52-66.48A204.84,204.84,0,0,1,17.72,79.19a150.07,150.07,0,0,0,19.74,170C39.19,233,56.4,204,83.57,170.92Z"/><path class="cls-2" d="M129.08,216.43C96,243.6,67,260.81,50.84,262.54a150.08,150.08,0,0,0,170,19.72c-10.85-4.83-23-11.9-36.6-21.31A533.55,533.55,0,0,1,129.08,216.43Z"/><path class="cls-3" d="M170.92,83.57C204,56.4,233,39.19,249.16,37.46a150.08,150.08,0,0,0-170-19.72c10.85,4.83,23,11.9,36.6,21.31A532.49,532.49,0,0,1,170.92,83.57Z"/><path class="cls-4" d="M262.54,50.84C260.81,67,243.6,96,216.43,129.08c21.16,23.19,39.18,46.17,52,66.48a204.84,204.84,0,0,1,13.83,25.25A150.07,150.07,0,0,0,262.54,50.84Z"/><path class="cls-5" d="M150,101.63h0C98.44,55,51.88,28.25,40.06,40.06c-13.69,13.7,24.43,74,85.15,134.73,8.31,8.32,16.61,16.19,24.79,23.58Z"/><path class="cls-6" d="M198.37,150h0c-7.39,8.18-15.26,16.48-23.58,24.79S158.18,191,150,198.37c51.56,46.59,98.12,73.38,109.94,61.57S245,201.56,198.37,150Z"/></g></g></svg>